<?xml version="1.0" standalone="no"?>
<!DOCTYPE svg PUBLIC "-//W3C//DTD SVG 20010904//EN"
 "http://www.w3.org/TR/2001/REC-SVG-20010904/DTD/svg10.dtd">
<svg version="1.0" xmlns="http://www.w3.org/2000/svg"
 width="100.000000pt" height="100.000000pt" viewBox="0 0 100.000000 100.000000"
 preserveAspectRatio="xMidYMid meet">
<metadata>
Created by potrace 1.14, written by Peter Selinger 2001-2017
</metadata>
<g transform="translate(0.000000,100.000000) scale(0.100000,-0.100000)"
fill="#000000" stroke="none">
<path d="M232 989 c-45 -14 -123 -62 -151 -95 -13 -15 -35 -50 -49 -78 -23
-43 -26 -64 -26 -136 0 -69 5 -94 24 -135 50 -103 149 -171 263 -182 l64 -6 6
-64 c11 -114 78 -210 183 -263 65 -33 195 -34 264 -3 58 26 128 96 159 158 28
56 37 160 18 222 -37 127 -147 217 -281 230 l-66 6 -1 36 c-3 128 -72 237
-183 290 -56 26 -171 37 -224 20z m179 -46 c107 -34 189 -151 189 -267 0 -41
-1 -43 -51 -67 -66 -31 -131 -95 -155 -153 -21 -52 -39 -61 -108 -53 -137 17
-246 140 -246 278 0 54 28 132 63 174 76 93 191 125 308 88z m391 -373 c173
-86 210 -309 73 -445 -88 -89 -210 -108 -323 -51 -212 107 -195 418 28 506 63
26 161 21 222 -10z"/>
<path d="M278 822 c-16 -9 -36 -36 -45 -59 -10 -24 -26 -44 -38 -48 -20 -5
-20 -6 -1 -20 20 -15 20 -15 0 -30 -18 -14 -17 -16 7 -19 6 0 17 -19 24 -40
19 -55 45 -77 97 -83 52 -6 88 9 88 37 0 17 -2 18 -27 4 -16 -7 -36 -14 -45
-14 -25 0 -66 41 -74 73 -6 27 -6 27 45 27 35 0 51 4 51 13 0 9 -15 13 -47 12
-28 0 -48 5 -51 13 -3 9 8 11 38 8 46 -4 80 2 80 15 0 5 -27 9 -60 9 -63 0
-69 5 -48 43 24 46 67 60 104 33 13 -10 23 -11 31 -4 19 15 16 23 -12 36 -37
17 -85 14 -117 -6z"/>
<path d="M672 500 c-4 -12 -11 -21 -15 -21 -20 2 -26 -1 -51 -25 -19 -19 -26
-37 -26 -64 0 -41 19 -65 63 -75 26 -7 27 -10 27 -66 0 -32 -3 -59 -8 -59 -18
0 -52 33 -52 51 0 13 -7 19 -21 19 -18 0 -20 -4 -14 -27 8 -35 40 -70 70 -77
12 -3 26 -16 29 -28 l7 -23 9 22 c5 12 25 29 44 37 39 16 56 42 56 83 0 37
-18 62 -61 82 -30 14 -34 21 -33 51 3 74 2 72 24 60 11 -6 20 -17 20 -25 0 -8
9 -15 20 -15 11 0 20 6 20 14 0 19 -46 66 -65 66 -8 0 -15 6 -15 14 0 25 -20
29 -28 6z m-2 -101 c0 -41 -3 -50 -16 -47 -39 7 -44 81 -6 91 9 3 18 5 20 6 1
0 2 -22 2 -50z m68 -121 c17 -17 15 -54 -4 -72 -28 -29 -40 -19 -41 34 0 40 3
50 16 50 10 0 22 -5 29 -12z"/>
<path d="M752 940 c-29 -28 -52 -54 -52 -59 0 -19 101 -110 115 -104 22 8 19
18 -16 52 l-31 31 56 0 c104 0 136 -35 136 -149 0 -64 2 -71 20 -71 18 0 20 7
20 73 0 127 -52 187 -161 187 -33 0 -59 4 -59 8 0 5 12 18 26 31 25 21 28 41
8 48 -6 2 -34 -19 -62 -47z"/>
<path d="M0 288 c0 -131 51 -188 169 -188 l66 0 -32 -30 c-29 -27 -36 -60 -13
-60 11 0 110 100 110 111 0 11 -99 109 -110 109 -4 0 -11 -7 -14 -16 -4 -11 5
-26 26 -45 l33 -29 -58 0 c-66 0 -109 19 -126 57 -6 13 -11 55 -11 93 0 63 -2
70 -20 70 -18 0 -20 -7 -20 -72z"/>
</g>
</svg>
